<?xml version="1.0" standalone="no"?>
<!DOCTYPE svg PUBLIC "-//W3C//DTD SVG 20010904//EN"
  "http://www.w3.org/TR/2001/REC-SVG-20010904/DTD/svg10.dtd">
<svg width="320" height="319">
<g style="<defs>
<linearGradient id="530ae87c-3bb5-497b-99f4-8a54bdcef0e4" x1="600" y1="817.36" x2="600" y2="82.64">
  <stop offset="0" stop-color="gray" />
  <stop offset="0.54" stop-color="gray" />
  <stop offset="1" stop-color="gray" />
</linearGradient>
<linearGradient id="98b0bd8b-d6e5-44e5-8134-4b720e26d691" x1="640.68" y1="541.38" x2="640.68" y2="111.38">
  <stop offset="0" stop-color="gray" />
  <stop offset="0.55" stop-color="gray" />
  <stop offset="1" stop-color="gray" />
</linearGradient>
</defs>
" transform="matrix(0.999997 0.00226893 -0.00226893 0.999997 -230.18 -83.96)">
<g style="fill:530ae87c-3bb5-497b-99f4-8a54bdcef0e4;" transform="translate(-231.2,-82.64)">
  <path d="M968.8,384.4c.06-27.46-5.63-34.67-18-45.11L617.08,88.13A27.22,27.22,0,0,0,584.4,88L256.58,332.11c-12.44,10.38-24.09,22.48-24.15,49.94h-.36l-.84,376h0l0,16.74a41,41,0,0,0,40.92,41.1l16.16,0h0l310.85.69,327,.73a41,41,0,0,0,41.1-40.92l.87-392.05Z"/>
</g>
<g style="fill:#3bba95;" transform="matrix(0.999997 0.00226893 -0.00226893 0.999997 -229.87 -83.97)">
  <path d="M237.76,384.59h723a0,0,0,0,1,0,0v350A71.78,71.78,0,0,1,889,806.36H308.23a70.47,70.47,0,0,1-70.47-70.47V384.59a0,0,0,0,1,0,0Z"/>
</g>
<g style="fill:#f5f5f5;" transform="translate(-231.2,-82.64)">
  <path d="M238.23,383.78l-.81,365.62a56.16,56.16,0,0,0,56,56.28L904.18,807"/>
</g>
<g style="fill:#fff;" transform="translate(-231.2,-82.64)">
  <path d="M961.27,385.39,960.46,751a56.16,56.16,0,0,1-56.28,56l-610.73-1.36"/>
</g>
<g style="fill:#3bba95;" transform="translate(-231.2,-82.64)">
  <path d="M584.33,97.91l-322,237.32c-12.22,10.09-23.66,21.86-23.72,48.56L962,386.08c.06-26.7-5.53-33.71-17.7-43.86L616.43,98A27,27,0,0,0,584.33,97.91Z"/>
</g>
<g style="opacity 0.3 " transform="translate(-231.2,-82.64)">
  <path d="M584.33,97.91l-322,237.32c-12.22,10.09-23.66,21.86-23.72,48.56L962,386.08c.06-26.7-5.53-33.71-17.7-43.86L616.43,98A27,27,0,0,0,584.33,97.91Z"/>
</g>
<g style="fill:98b0bd8b-d6e5-44e5-8134-4b720e26d691;" transform="translate(-231.2,-82.64)">
  <polygon points="651.79,97.86 564.3,29.19 352.78,297.12 239.11,208.99 
    167.94,299.45 333.36,425.81 333.36,425.81 374.37,458.76 651.79,97.86 
    651.79,97.86 "/>
</g>
<g style="fill:#fff;" transform="translate(-231.2,-82.64)">
  <polygon points="645.39,96.18 566.06,35.35 355.92,309.4 239.21,219.91 
    178.38,299.24 334.74,418.96 334.74,418.96 374.84,449.01 645.39,96.18 
    645.39,96.18 "/>
</g>
</g>
</svg>
